<?xml version="1.0" encoding="UTF-8"?>
<svg id="Layer_1" data-name="Layer 1" xmlns="http://www.w3.org/2000/svg" viewBox="0 0 338.48 148.49">
  <defs>
    <style>
      .cls-1, .cls-2, .cls-3 {
        fill: #fff;
      }

      .cls-2 {
        font-family: Montserrat-Medium, Montserrat;
        font-size: 42.04px;
        font-weight: 500;
      }

      .cls-3 {
        font-family: Montserrat-SemiBold, Montserrat;
        font-size: 51.5px;
        font-weight: 600;
      }
    </style>
  </defs>
  <g>
    <path class="cls-1" d="m88.34,147.98s-.18.33-.27.52h-.03c-8.17-.46-16-1.91-23.46-4.21C26,132.36-1.34,97.2.05,56.68L1.99,0l36.86,1.26c.54.02,1.02.03,1.49.08.14,0,.28,0,.42.04l-2.28,66.48c-.98,28.71,12.87,54.62,34.94,71.11,4.6,3.44,9.6,6.47,14.91,9.01Z"/>
    <polyline class="cls-1" points="40.23 1.52 42.01 1.52 42.01 1.57"/>
    <path class="cls-1" d="m93.48,42.49v90.65c0,4.67-.96,9.15-2.77,13.31-4.72-2.36-9.2-5.22-13.33-8.49-19.83-15.73-32.74-41.15-32.74-69.87V1.57c27.13.68,48.84,18.74,48.84,40.91Z"/>
  </g>
  <text class="cls-3" transform="translate(143.48 70.04) scale(1.17 1)"><tspan x="0" y="0">LIBAN</tspan></text>
  <text class="cls-2" transform="translate(146.59 121.92) scale(1.09 1)"><tspan x="0" y="0">Designs</tspan></text>
</svg>